<mxfile host="app.diagrams.net" modified="2023-07-13T09:04:58.999Z" agent="Mozilla/5.0 (Windows NT 10.0; Win64; x64) AppleWebKit/537.36 (KHTML, like Gecko) Chrome/114.0.0.0 Safari/537.36 Edg/114.0.1823.79" etag="aNQyYSdbOaOlM8mBkdYI" version="21.6.1" type="device" pages="4">
  <diagram name="swipeIn" id="2YBvvXClWsGukQMizWep">
    <mxGraphModel dx="1589" dy="470" grid="1" gridSize="10" guides="1" tooltips="1" connect="1" arrows="1" fold="1" page="1" pageScale="1" pageWidth="850" pageHeight="1100" math="0" shadow="0">
      <root>
        <mxCell id="0" />
        <mxCell id="1" parent="0" />
        <mxCell id="aM9ryv3xv72pqoxQDRHE-1" value="API Gateway" style="shape=umlLifeline;perimeter=lifelinePerimeter;whiteSpace=wrap;html=1;container=0;dropTarget=0;collapsible=0;recursiveResize=0;outlineConnect=0;portConstraint=eastwest;newEdgeStyle={&quot;edgeStyle&quot;:&quot;elbowEdgeStyle&quot;,&quot;elbow&quot;:&quot;vertical&quot;,&quot;curved&quot;:0,&quot;rounded&quot;:0};" parent="1" vertex="1">
          <mxGeometry x="50" y="40" width="100" height="200" as="geometry" />
        </mxCell>
        <mxCell id="aM9ryv3xv72pqoxQDRHE-2" value="" style="html=1;points=[];perimeter=orthogonalPerimeter;outlineConnect=0;targetShapes=umlLifeline;portConstraint=eastwest;newEdgeStyle={&quot;edgeStyle&quot;:&quot;elbowEdgeStyle&quot;,&quot;elbow&quot;:&quot;vertical&quot;,&quot;curved&quot;:0,&quot;rounded&quot;:0};" parent="aM9ryv3xv72pqoxQDRHE-1" vertex="1">
          <mxGeometry x="45" y="70" width="10" height="100" as="geometry" />
        </mxCell>
        <mxCell id="aM9ryv3xv72pqoxQDRHE-3" value="swipeIn/eid" style="html=1;verticalAlign=bottom;startArrow=oval;endArrow=block;startSize=8;edgeStyle=elbowEdgeStyle;elbow=vertical;curved=0;rounded=0;" parent="aM9ryv3xv72pqoxQDRHE-1" target="aM9ryv3xv72pqoxQDRHE-2" edge="1">
          <mxGeometry relative="1" as="geometry">
            <mxPoint x="-60" y="90" as="sourcePoint" />
          </mxGeometry>
        </mxCell>
        <mxCell id="aM9ryv3xv72pqoxQDRHE-5" value="Event Controller" style="shape=umlLifeline;perimeter=lifelinePerimeter;whiteSpace=wrap;html=1;container=0;dropTarget=0;collapsible=0;recursiveResize=0;outlineConnect=0;portConstraint=eastwest;newEdgeStyle={&quot;edgeStyle&quot;:&quot;elbowEdgeStyle&quot;,&quot;elbow&quot;:&quot;vertical&quot;,&quot;curved&quot;:0,&quot;rounded&quot;:0};" parent="1" vertex="1">
          <mxGeometry x="220" y="40" width="100" height="200" as="geometry" />
        </mxCell>
        <mxCell id="aM9ryv3xv72pqoxQDRHE-6" value="" style="html=1;points=[];perimeter=orthogonalPerimeter;outlineConnect=0;targetShapes=umlLifeline;portConstraint=eastwest;newEdgeStyle={&quot;edgeStyle&quot;:&quot;elbowEdgeStyle&quot;,&quot;elbow&quot;:&quot;vertical&quot;,&quot;curved&quot;:0,&quot;rounded&quot;:0};" parent="aM9ryv3xv72pqoxQDRHE-5" vertex="1">
          <mxGeometry x="45" y="80" width="10" height="80" as="geometry" />
        </mxCell>
        <mxCell id="aM9ryv3xv72pqoxQDRHE-7" value="swipeIn/{eid}" style="html=1;verticalAlign=bottom;endArrow=block;edgeStyle=elbowEdgeStyle;elbow=vertical;curved=0;rounded=0;" parent="1" source="aM9ryv3xv72pqoxQDRHE-2" target="aM9ryv3xv72pqoxQDRHE-6" edge="1">
          <mxGeometry relative="1" as="geometry">
            <mxPoint x="195" y="130" as="sourcePoint" />
            <Array as="points">
              <mxPoint x="210" y="130" />
              <mxPoint x="180" y="120" />
            </Array>
          </mxGeometry>
        </mxCell>
        <mxCell id="ID6pwNwmJ9Y6ppV090Uf-1" value="Event Service" style="shape=umlLifeline;perimeter=lifelinePerimeter;whiteSpace=wrap;html=1;container=0;dropTarget=0;collapsible=0;recursiveResize=0;outlineConnect=0;portConstraint=eastwest;newEdgeStyle={&quot;edgeStyle&quot;:&quot;elbowEdgeStyle&quot;,&quot;elbow&quot;:&quot;vertical&quot;,&quot;curved&quot;:0,&quot;rounded&quot;:0};" vertex="1" parent="1">
          <mxGeometry x="375" y="40" width="100" height="200" as="geometry" />
        </mxCell>
        <mxCell id="ID6pwNwmJ9Y6ppV090Uf-2" value="" style="html=1;points=[];perimeter=orthogonalPerimeter;outlineConnect=0;targetShapes=umlLifeline;portConstraint=eastwest;newEdgeStyle={&quot;edgeStyle&quot;:&quot;elbowEdgeStyle&quot;,&quot;elbow&quot;:&quot;vertical&quot;,&quot;curved&quot;:0,&quot;rounded&quot;:0};" vertex="1" parent="ID6pwNwmJ9Y6ppV090Uf-1">
          <mxGeometry x="45" y="80" width="10" height="70" as="geometry" />
        </mxCell>
        <mxCell id="ID6pwNwmJ9Y6ppV090Uf-3" value="Event Repository" style="shape=umlLifeline;perimeter=lifelinePerimeter;whiteSpace=wrap;html=1;container=0;dropTarget=0;collapsible=0;recursiveResize=0;outlineConnect=0;portConstraint=eastwest;newEdgeStyle={&quot;edgeStyle&quot;:&quot;elbowEdgeStyle&quot;,&quot;elbow&quot;:&quot;vertical&quot;,&quot;curved&quot;:0,&quot;rounded&quot;:0};" vertex="1" parent="1">
          <mxGeometry x="530" y="40" width="100" height="200" as="geometry" />
        </mxCell>
        <mxCell id="ID6pwNwmJ9Y6ppV090Uf-4" value="" style="html=1;points=[];perimeter=orthogonalPerimeter;outlineConnect=0;targetShapes=umlLifeline;portConstraint=eastwest;newEdgeStyle={&quot;edgeStyle&quot;:&quot;elbowEdgeStyle&quot;,&quot;elbow&quot;:&quot;vertical&quot;,&quot;curved&quot;:0,&quot;rounded&quot;:0};" vertex="1" parent="ID6pwNwmJ9Y6ppV090Uf-3">
          <mxGeometry x="45" y="80" width="10" height="60" as="geometry" />
        </mxCell>
        <mxCell id="ID6pwNwmJ9Y6ppV090Uf-5" style="edgeStyle=elbowEdgeStyle;rounded=0;orthogonalLoop=1;jettySize=auto;html=1;elbow=vertical;curved=0;" edge="1" parent="1">
          <mxGeometry relative="1" as="geometry">
            <mxPoint x="280" y="140" as="sourcePoint" />
            <mxPoint x="420" y="140" as="targetPoint" />
          </mxGeometry>
        </mxCell>
        <mxCell id="ID6pwNwmJ9Y6ppV090Uf-6" value="createEvent(eid)" style="text;html=1;align=center;verticalAlign=middle;resizable=0;points=[];autosize=1;strokeColor=none;fillColor=none;" vertex="1" parent="1">
          <mxGeometry x="290" y="118" width="110" height="30" as="geometry" />
        </mxCell>
        <mxCell id="ID6pwNwmJ9Y6ppV090Uf-7" style="edgeStyle=elbowEdgeStyle;rounded=0;orthogonalLoop=1;jettySize=auto;html=1;elbow=vertical;curved=0;" edge="1" parent="1">
          <mxGeometry relative="1" as="geometry">
            <mxPoint x="425" y="148" as="sourcePoint" />
            <mxPoint x="574.5" y="148" as="targetPoint" />
          </mxGeometry>
        </mxCell>
        <mxCell id="ID6pwNwmJ9Y6ppV090Uf-8" value="save(Event)" style="text;html=1;align=center;verticalAlign=middle;resizable=0;points=[];autosize=1;strokeColor=none;fillColor=none;" vertex="1" parent="1">
          <mxGeometry x="455" y="128" width="90" height="30" as="geometry" />
        </mxCell>
        <mxCell id="ID6pwNwmJ9Y6ppV090Uf-9" value="return" style="html=1;verticalAlign=bottom;endArrow=open;dashed=1;endSize=8;edgeStyle=elbowEdgeStyle;elbow=vertical;curved=0;rounded=0;" edge="1" parent="1">
          <mxGeometry relative="1" as="geometry">
            <mxPoint x="425" y="170" as="targetPoint" />
            <Array as="points">
              <mxPoint x="510" y="170" />
            </Array>
            <mxPoint x="580" y="170" as="sourcePoint" />
          </mxGeometry>
        </mxCell>
        <mxCell id="ID6pwNwmJ9Y6ppV090Uf-10" value="return" style="html=1;verticalAlign=bottom;endArrow=open;dashed=1;endSize=8;edgeStyle=elbowEdgeStyle;elbow=vertical;curved=0;rounded=0;" edge="1" parent="1">
          <mxGeometry relative="1" as="geometry">
            <mxPoint x="280" y="180" as="targetPoint" />
            <Array as="points">
              <mxPoint x="352.5" y="180" />
            </Array>
            <mxPoint x="422.5" y="180" as="sourcePoint" />
          </mxGeometry>
        </mxCell>
        <mxCell id="ID6pwNwmJ9Y6ppV090Uf-11" value="return 200" style="html=1;verticalAlign=bottom;endArrow=open;dashed=1;endSize=8;edgeStyle=elbowEdgeStyle;elbow=horizontal;curved=0;rounded=0;" edge="1" parent="1">
          <mxGeometry relative="1" as="geometry">
            <mxPoint x="110" y="189.5" as="targetPoint" />
            <Array as="points">
              <mxPoint x="195" y="189.5" />
            </Array>
            <mxPoint x="265" y="189.5" as="sourcePoint" />
          </mxGeometry>
        </mxCell>
        <mxCell id="ID6pwNwmJ9Y6ppV090Uf-19" value="" style="group" vertex="1" connectable="0" parent="1">
          <mxGeometry x="710" y="110" width="120" height="110" as="geometry" />
        </mxCell>
        <mxCell id="ID6pwNwmJ9Y6ppV090Uf-18" value="" style="rounded=0;whiteSpace=wrap;html=1;" vertex="1" parent="ID6pwNwmJ9Y6ppV090Uf-19">
          <mxGeometry y="31.818181818181817" width="120" height="64.54545454545455" as="geometry" />
        </mxCell>
        <mxCell id="ID6pwNwmJ9Y6ppV090Uf-17" value="" style="group" vertex="1" connectable="0" parent="ID6pwNwmJ9Y6ppV090Uf-19">
          <mxGeometry y="50.90909090909091" width="120" height="59.090909090909086" as="geometry" />
        </mxCell>
        <mxCell id="ID6pwNwmJ9Y6ppV090Uf-15" value="" style="ellipse;whiteSpace=wrap;html=1;" vertex="1" parent="ID6pwNwmJ9Y6ppV090Uf-17">
          <mxGeometry y="22.727272727272727" width="120" height="36.36363636363636" as="geometry" />
        </mxCell>
        <mxCell id="ID6pwNwmJ9Y6ppV090Uf-16" value="" style="ellipse;whiteSpace=wrap;html=1;" vertex="1" parent="ID6pwNwmJ9Y6ppV090Uf-17">
          <mxGeometry width="120" height="36.36363636363636" as="geometry" />
        </mxCell>
        <mxCell id="ID6pwNwmJ9Y6ppV090Uf-13" value="" style="rounded=0;whiteSpace=wrap;html=1;" vertex="1" parent="ID6pwNwmJ9Y6ppV090Uf-19">
          <mxGeometry y="18.18181818181818" width="120" height="27.272727272727273" as="geometry" />
        </mxCell>
        <mxCell id="ID6pwNwmJ9Y6ppV090Uf-51" style="edgeStyle=orthogonalEdgeStyle;rounded=0;orthogonalLoop=1;jettySize=auto;html=1;exitX=0.5;exitY=1;exitDx=0;exitDy=0;" edge="1" parent="ID6pwNwmJ9Y6ppV090Uf-19" source="ID6pwNwmJ9Y6ppV090Uf-14" target="ID6pwNwmJ9Y6ppV090Uf-16">
          <mxGeometry relative="1" as="geometry" />
        </mxCell>
        <mxCell id="ID6pwNwmJ9Y6ppV090Uf-14" value="" style="ellipse;whiteSpace=wrap;html=1;" vertex="1" parent="ID6pwNwmJ9Y6ppV090Uf-19">
          <mxGeometry y="31.818181818181817" width="120" height="36.36363636363636" as="geometry" />
        </mxCell>
        <mxCell id="ID6pwNwmJ9Y6ppV090Uf-12" value="" style="ellipse;whiteSpace=wrap;html=1;" vertex="1" parent="ID6pwNwmJ9Y6ppV090Uf-19">
          <mxGeometry width="120" height="36.36363636363636" as="geometry" />
        </mxCell>
        <mxCell id="ID6pwNwmJ9Y6ppV090Uf-20" value="DB" style="text;html=1;align=center;verticalAlign=middle;resizable=0;points=[];autosize=1;strokeColor=none;fillColor=none;" vertex="1" parent="1">
          <mxGeometry x="750" y="40" width="40" height="30" as="geometry" />
        </mxCell>
        <mxCell id="ID6pwNwmJ9Y6ppV090Uf-22" value="" style="endArrow=classic;startArrow=classic;html=1;rounded=0;" edge="1" parent="1">
          <mxGeometry width="50" height="50" relative="1" as="geometry">
            <mxPoint x="590" y="155" as="sourcePoint" />
            <mxPoint x="710" y="155" as="targetPoint" />
          </mxGeometry>
        </mxCell>
      </root>
    </mxGraphModel>
  </diagram>
  <diagram id="DksYGZ9vNiy1fonWwkhB" name="swipeOut">
    <mxGraphModel dx="1239" dy="470" grid="1" gridSize="10" guides="1" tooltips="1" connect="1" arrows="1" fold="1" page="1" pageScale="1" pageWidth="500" pageHeight="500" math="0" shadow="0">
      <root>
        <mxCell id="0" />
        <mxCell id="1" parent="0" />
        <mxCell id="c8wQvJ74mTMDHzN-RfHY-1" value="API Gateway" style="shape=umlLifeline;perimeter=lifelinePerimeter;whiteSpace=wrap;html=1;container=0;dropTarget=0;collapsible=0;recursiveResize=0;outlineConnect=0;portConstraint=eastwest;newEdgeStyle={&quot;edgeStyle&quot;:&quot;elbowEdgeStyle&quot;,&quot;elbow&quot;:&quot;vertical&quot;,&quot;curved&quot;:0,&quot;rounded&quot;:0};" vertex="1" parent="1">
          <mxGeometry x="50" y="40" width="100" height="200" as="geometry" />
        </mxCell>
        <mxCell id="c8wQvJ74mTMDHzN-RfHY-2" value="" style="html=1;points=[];perimeter=orthogonalPerimeter;outlineConnect=0;targetShapes=umlLifeline;portConstraint=eastwest;newEdgeStyle={&quot;edgeStyle&quot;:&quot;elbowEdgeStyle&quot;,&quot;elbow&quot;:&quot;vertical&quot;,&quot;curved&quot;:0,&quot;rounded&quot;:0};" vertex="1" parent="c8wQvJ74mTMDHzN-RfHY-1">
          <mxGeometry x="45" y="70" width="10" height="100" as="geometry" />
        </mxCell>
        <mxCell id="c8wQvJ74mTMDHzN-RfHY-3" value="swipeOut/eid" style="html=1;verticalAlign=bottom;startArrow=oval;endArrow=block;startSize=8;edgeStyle=elbowEdgeStyle;elbow=vertical;curved=0;rounded=0;" edge="1" parent="c8wQvJ74mTMDHzN-RfHY-1" target="c8wQvJ74mTMDHzN-RfHY-2">
          <mxGeometry relative="1" as="geometry">
            <mxPoint x="-60" y="90" as="sourcePoint" />
          </mxGeometry>
        </mxCell>
        <mxCell id="c8wQvJ74mTMDHzN-RfHY-4" value="Event Controller" style="shape=umlLifeline;perimeter=lifelinePerimeter;whiteSpace=wrap;html=1;container=0;dropTarget=0;collapsible=0;recursiveResize=0;outlineConnect=0;portConstraint=eastwest;newEdgeStyle={&quot;edgeStyle&quot;:&quot;elbowEdgeStyle&quot;,&quot;elbow&quot;:&quot;vertical&quot;,&quot;curved&quot;:0,&quot;rounded&quot;:0};" vertex="1" parent="1">
          <mxGeometry x="220" y="40" width="100" height="200" as="geometry" />
        </mxCell>
        <mxCell id="c8wQvJ74mTMDHzN-RfHY-5" value="" style="html=1;points=[];perimeter=orthogonalPerimeter;outlineConnect=0;targetShapes=umlLifeline;portConstraint=eastwest;newEdgeStyle={&quot;edgeStyle&quot;:&quot;elbowEdgeStyle&quot;,&quot;elbow&quot;:&quot;vertical&quot;,&quot;curved&quot;:0,&quot;rounded&quot;:0};" vertex="1" parent="c8wQvJ74mTMDHzN-RfHY-4">
          <mxGeometry x="45" y="80" width="10" height="80" as="geometry" />
        </mxCell>
        <mxCell id="c8wQvJ74mTMDHzN-RfHY-6" value="swipeOut/{eid}" style="html=1;verticalAlign=bottom;endArrow=block;edgeStyle=elbowEdgeStyle;elbow=vertical;curved=0;rounded=0;" edge="1" parent="1" source="c8wQvJ74mTMDHzN-RfHY-2" target="c8wQvJ74mTMDHzN-RfHY-5">
          <mxGeometry relative="1" as="geometry">
            <mxPoint x="195" y="130" as="sourcePoint" />
            <Array as="points">
              <mxPoint x="210" y="130" />
              <mxPoint x="180" y="120" />
            </Array>
          </mxGeometry>
        </mxCell>
        <mxCell id="c8wQvJ74mTMDHzN-RfHY-7" value="Event Service" style="shape=umlLifeline;perimeter=lifelinePerimeter;whiteSpace=wrap;html=1;container=0;dropTarget=0;collapsible=0;recursiveResize=0;outlineConnect=0;portConstraint=eastwest;newEdgeStyle={&quot;edgeStyle&quot;:&quot;elbowEdgeStyle&quot;,&quot;elbow&quot;:&quot;vertical&quot;,&quot;curved&quot;:0,&quot;rounded&quot;:0};" vertex="1" parent="1">
          <mxGeometry x="375" y="40" width="100" height="200" as="geometry" />
        </mxCell>
        <mxCell id="c8wQvJ74mTMDHzN-RfHY-8" value="" style="html=1;points=[];perimeter=orthogonalPerimeter;outlineConnect=0;targetShapes=umlLifeline;portConstraint=eastwest;newEdgeStyle={&quot;edgeStyle&quot;:&quot;elbowEdgeStyle&quot;,&quot;elbow&quot;:&quot;vertical&quot;,&quot;curved&quot;:0,&quot;rounded&quot;:0};" vertex="1" parent="c8wQvJ74mTMDHzN-RfHY-7">
          <mxGeometry x="45" y="80" width="10" height="70" as="geometry" />
        </mxCell>
        <mxCell id="c8wQvJ74mTMDHzN-RfHY-9" value="Event Repository" style="shape=umlLifeline;perimeter=lifelinePerimeter;whiteSpace=wrap;html=1;container=0;dropTarget=0;collapsible=0;recursiveResize=0;outlineConnect=0;portConstraint=eastwest;newEdgeStyle={&quot;edgeStyle&quot;:&quot;elbowEdgeStyle&quot;,&quot;elbow&quot;:&quot;vertical&quot;,&quot;curved&quot;:0,&quot;rounded&quot;:0};" vertex="1" parent="1">
          <mxGeometry x="530" y="40" width="100" height="200" as="geometry" />
        </mxCell>
        <mxCell id="c8wQvJ74mTMDHzN-RfHY-10" value="" style="html=1;points=[];perimeter=orthogonalPerimeter;outlineConnect=0;targetShapes=umlLifeline;portConstraint=eastwest;newEdgeStyle={&quot;edgeStyle&quot;:&quot;elbowEdgeStyle&quot;,&quot;elbow&quot;:&quot;vertical&quot;,&quot;curved&quot;:0,&quot;rounded&quot;:0};" vertex="1" parent="c8wQvJ74mTMDHzN-RfHY-9">
          <mxGeometry x="45" y="80" width="10" height="60" as="geometry" />
        </mxCell>
        <mxCell id="c8wQvJ74mTMDHzN-RfHY-11" style="edgeStyle=elbowEdgeStyle;rounded=0;orthogonalLoop=1;jettySize=auto;html=1;elbow=vertical;curved=0;" edge="1" parent="1">
          <mxGeometry relative="1" as="geometry">
            <mxPoint x="280" y="140" as="sourcePoint" />
            <mxPoint x="420" y="140" as="targetPoint" />
          </mxGeometry>
        </mxCell>
        <mxCell id="c8wQvJ74mTMDHzN-RfHY-12" value="updateEvent(eid)" style="text;html=1;align=center;verticalAlign=middle;resizable=0;points=[];autosize=1;strokeColor=none;fillColor=none;" vertex="1" parent="1">
          <mxGeometry x="290" y="118" width="110" height="30" as="geometry" />
        </mxCell>
        <mxCell id="c8wQvJ74mTMDHzN-RfHY-13" style="edgeStyle=elbowEdgeStyle;rounded=0;orthogonalLoop=1;jettySize=auto;html=1;elbow=vertical;curved=0;" edge="1" parent="1">
          <mxGeometry relative="1" as="geometry">
            <mxPoint x="425" y="148" as="sourcePoint" />
            <mxPoint x="574.5" y="148" as="targetPoint" />
          </mxGeometry>
        </mxCell>
        <mxCell id="c8wQvJ74mTMDHzN-RfHY-14" value="save(Event)" style="text;html=1;align=center;verticalAlign=middle;resizable=0;points=[];autosize=1;strokeColor=none;fillColor=none;" vertex="1" parent="1">
          <mxGeometry x="455" y="128" width="90" height="30" as="geometry" />
        </mxCell>
        <mxCell id="c8wQvJ74mTMDHzN-RfHY-15" value="return" style="html=1;verticalAlign=bottom;endArrow=open;dashed=1;endSize=8;edgeStyle=elbowEdgeStyle;elbow=vertical;curved=0;rounded=0;" edge="1" parent="1">
          <mxGeometry relative="1" as="geometry">
            <mxPoint x="425" y="170" as="targetPoint" />
            <Array as="points">
              <mxPoint x="510" y="170" />
            </Array>
            <mxPoint x="580" y="170" as="sourcePoint" />
          </mxGeometry>
        </mxCell>
        <mxCell id="c8wQvJ74mTMDHzN-RfHY-16" value="return" style="html=1;verticalAlign=bottom;endArrow=open;dashed=1;endSize=8;edgeStyle=elbowEdgeStyle;elbow=vertical;curved=0;rounded=0;" edge="1" parent="1">
          <mxGeometry relative="1" as="geometry">
            <mxPoint x="280" y="180" as="targetPoint" />
            <Array as="points">
              <mxPoint x="352.5" y="180" />
            </Array>
            <mxPoint x="422.5" y="180" as="sourcePoint" />
          </mxGeometry>
        </mxCell>
        <mxCell id="c8wQvJ74mTMDHzN-RfHY-17" value="return 200" style="html=1;verticalAlign=bottom;endArrow=open;dashed=1;endSize=8;edgeStyle=elbowEdgeStyle;elbow=horizontal;curved=0;rounded=0;" edge="1" parent="1">
          <mxGeometry relative="1" as="geometry">
            <mxPoint x="110" y="189.5" as="targetPoint" />
            <Array as="points">
              <mxPoint x="195" y="189.5" />
            </Array>
            <mxPoint x="265" y="189.5" as="sourcePoint" />
          </mxGeometry>
        </mxCell>
        <mxCell id="c8wQvJ74mTMDHzN-RfHY-18" value="" style="group" vertex="1" connectable="0" parent="1">
          <mxGeometry x="710" y="110" width="120" height="110" as="geometry" />
        </mxCell>
        <mxCell id="c8wQvJ74mTMDHzN-RfHY-19" value="" style="rounded=0;whiteSpace=wrap;html=1;" vertex="1" parent="c8wQvJ74mTMDHzN-RfHY-18">
          <mxGeometry y="31.818181818181817" width="120" height="64.54545454545455" as="geometry" />
        </mxCell>
        <mxCell id="c8wQvJ74mTMDHzN-RfHY-20" value="" style="group" vertex="1" connectable="0" parent="c8wQvJ74mTMDHzN-RfHY-18">
          <mxGeometry y="50.90909090909091" width="120" height="59.090909090909086" as="geometry" />
        </mxCell>
        <mxCell id="c8wQvJ74mTMDHzN-RfHY-21" value="" style="ellipse;whiteSpace=wrap;html=1;" vertex="1" parent="c8wQvJ74mTMDHzN-RfHY-20">
          <mxGeometry y="22.727272727272727" width="120" height="36.36363636363636" as="geometry" />
        </mxCell>
        <mxCell id="c8wQvJ74mTMDHzN-RfHY-22" value="" style="ellipse;whiteSpace=wrap;html=1;" vertex="1" parent="c8wQvJ74mTMDHzN-RfHY-20">
          <mxGeometry width="120" height="36.36363636363636" as="geometry" />
        </mxCell>
        <mxCell id="c8wQvJ74mTMDHzN-RfHY-23" value="" style="rounded=0;whiteSpace=wrap;html=1;" vertex="1" parent="c8wQvJ74mTMDHzN-RfHY-18">
          <mxGeometry y="18.18181818181818" width="120" height="27.272727272727273" as="geometry" />
        </mxCell>
        <mxCell id="c8wQvJ74mTMDHzN-RfHY-24" style="edgeStyle=orthogonalEdgeStyle;rounded=0;orthogonalLoop=1;jettySize=auto;html=1;exitX=0.5;exitY=1;exitDx=0;exitDy=0;" edge="1" parent="c8wQvJ74mTMDHzN-RfHY-18" source="c8wQvJ74mTMDHzN-RfHY-25" target="c8wQvJ74mTMDHzN-RfHY-22">
          <mxGeometry relative="1" as="geometry" />
        </mxCell>
        <mxCell id="c8wQvJ74mTMDHzN-RfHY-25" value="" style="ellipse;whiteSpace=wrap;html=1;" vertex="1" parent="c8wQvJ74mTMDHzN-RfHY-18">
          <mxGeometry y="31.818181818181817" width="120" height="36.36363636363636" as="geometry" />
        </mxCell>
        <mxCell id="c8wQvJ74mTMDHzN-RfHY-26" value="" style="ellipse;whiteSpace=wrap;html=1;" vertex="1" parent="c8wQvJ74mTMDHzN-RfHY-18">
          <mxGeometry width="120" height="36.36363636363636" as="geometry" />
        </mxCell>
        <mxCell id="c8wQvJ74mTMDHzN-RfHY-27" value="DB" style="text;html=1;align=center;verticalAlign=middle;resizable=0;points=[];autosize=1;strokeColor=none;fillColor=none;" vertex="1" parent="1">
          <mxGeometry x="750" y="40" width="40" height="30" as="geometry" />
        </mxCell>
        <mxCell id="c8wQvJ74mTMDHzN-RfHY-28" value="" style="endArrow=classic;startArrow=classic;html=1;rounded=0;" edge="1" parent="1">
          <mxGeometry width="50" height="50" relative="1" as="geometry">
            <mxPoint x="590" y="155" as="sourcePoint" />
            <mxPoint x="710" y="155" as="targetPoint" />
          </mxGeometry>
        </mxCell>
      </root>
    </mxGraphModel>
  </diagram>
  <diagram id="pqocZMI0K09ccVYQZ5Vg" name="calculateAttendance">
    <mxGraphModel dx="1556" dy="671" grid="1" gridSize="10" guides="1" tooltips="1" connect="1" arrows="1" fold="1" page="1" pageScale="1" pageWidth="500" pageHeight="500" math="0" shadow="0">
      <root>
        <mxCell id="0" />
        <mxCell id="1" parent="0" />
        <mxCell id="UJyPSHQa-_RepvIGWFUO-1" value="API Gateway" style="shape=umlLifeline;perimeter=lifelinePerimeter;whiteSpace=wrap;html=1;container=0;dropTarget=0;collapsible=0;recursiveResize=0;outlineConnect=0;portConstraint=eastwest;newEdgeStyle={&quot;edgeStyle&quot;:&quot;elbowEdgeStyle&quot;,&quot;elbow&quot;:&quot;vertical&quot;,&quot;curved&quot;:0,&quot;rounded&quot;:0};" vertex="1" parent="1">
          <mxGeometry x="50" y="40" width="100" height="230" as="geometry" />
        </mxCell>
        <mxCell id="UJyPSHQa-_RepvIGWFUO-2" value="" style="html=1;points=[];perimeter=orthogonalPerimeter;outlineConnect=0;targetShapes=umlLifeline;portConstraint=eastwest;newEdgeStyle={&quot;edgeStyle&quot;:&quot;elbowEdgeStyle&quot;,&quot;elbow&quot;:&quot;vertical&quot;,&quot;curved&quot;:0,&quot;rounded&quot;:0};" vertex="1" parent="UJyPSHQa-_RepvIGWFUO-1">
          <mxGeometry x="45" y="70" width="10" height="150" as="geometry" />
        </mxCell>
        <mxCell id="UJyPSHQa-_RepvIGWFUO-3" value="/calculateAttendance" style="html=1;verticalAlign=bottom;startArrow=oval;endArrow=block;startSize=8;edgeStyle=elbowEdgeStyle;elbow=vertical;curved=0;rounded=0;" edge="1" parent="UJyPSHQa-_RepvIGWFUO-1" target="UJyPSHQa-_RepvIGWFUO-2">
          <mxGeometry relative="1" as="geometry">
            <mxPoint x="-60" y="90" as="sourcePoint" />
          </mxGeometry>
        </mxCell>
        <mxCell id="UJyPSHQa-_RepvIGWFUO-4" value="Event Controller" style="shape=umlLifeline;perimeter=lifelinePerimeter;whiteSpace=wrap;html=1;container=0;dropTarget=0;collapsible=0;recursiveResize=0;outlineConnect=0;portConstraint=eastwest;newEdgeStyle={&quot;edgeStyle&quot;:&quot;elbowEdgeStyle&quot;,&quot;elbow&quot;:&quot;vertical&quot;,&quot;curved&quot;:0,&quot;rounded&quot;:0};" vertex="1" parent="1">
          <mxGeometry x="220" y="40" width="100" height="230" as="geometry" />
        </mxCell>
        <mxCell id="UJyPSHQa-_RepvIGWFUO-5" value="" style="html=1;points=[];perimeter=orthogonalPerimeter;outlineConnect=0;targetShapes=umlLifeline;portConstraint=eastwest;newEdgeStyle={&quot;edgeStyle&quot;:&quot;elbowEdgeStyle&quot;,&quot;elbow&quot;:&quot;vertical&quot;,&quot;curved&quot;:0,&quot;rounded&quot;:0};" vertex="1" parent="UJyPSHQa-_RepvIGWFUO-4">
          <mxGeometry x="45" y="80" width="10" height="140" as="geometry" />
        </mxCell>
        <mxCell id="UJyPSHQa-_RepvIGWFUO-6" value="/calculateAttendance" style="html=1;verticalAlign=bottom;endArrow=block;edgeStyle=elbowEdgeStyle;elbow=vertical;curved=0;rounded=0;" edge="1" parent="1" source="UJyPSHQa-_RepvIGWFUO-2" target="UJyPSHQa-_RepvIGWFUO-5">
          <mxGeometry relative="1" as="geometry">
            <mxPoint x="195" y="130" as="sourcePoint" />
            <Array as="points">
              <mxPoint x="210" y="130" />
              <mxPoint x="180" y="120" />
            </Array>
          </mxGeometry>
        </mxCell>
        <mxCell id="UJyPSHQa-_RepvIGWFUO-7" value="Event Service" style="shape=umlLifeline;perimeter=lifelinePerimeter;whiteSpace=wrap;html=1;container=0;dropTarget=0;collapsible=0;recursiveResize=0;outlineConnect=0;portConstraint=eastwest;newEdgeStyle={&quot;edgeStyle&quot;:&quot;elbowEdgeStyle&quot;,&quot;elbow&quot;:&quot;vertical&quot;,&quot;curved&quot;:0,&quot;rounded&quot;:0};" vertex="1" parent="1">
          <mxGeometry x="375" y="40" width="100" height="230" as="geometry" />
        </mxCell>
        <mxCell id="UJyPSHQa-_RepvIGWFUO-33" style="edgeStyle=elbowEdgeStyle;rounded=0;orthogonalLoop=1;jettySize=auto;html=1;elbow=vertical;curved=0;movable=1;resizable=1;rotatable=1;deletable=1;editable=1;locked=0;connectable=1;exitX=1.013;exitY=0.499;exitDx=0;exitDy=0;exitPerimeter=0;" edge="1" parent="UJyPSHQa-_RepvIGWFUO-7" source="UJyPSHQa-_RepvIGWFUO-8" target="UJyPSHQa-_RepvIGWFUO-8">
          <mxGeometry relative="1" as="geometry">
            <mxPoint x="125" y="170" as="targetPoint" />
            <mxPoint x="65" y="130" as="sourcePoint" />
            <Array as="points">
              <mxPoint x="105" y="140" />
            </Array>
          </mxGeometry>
        </mxCell>
        <mxCell id="UJyPSHQa-_RepvIGWFUO-8" value="" style="html=1;points=[];perimeter=orthogonalPerimeter;outlineConnect=0;targetShapes=umlLifeline;portConstraint=eastwest;newEdgeStyle={&quot;edgeStyle&quot;:&quot;elbowEdgeStyle&quot;,&quot;elbow&quot;:&quot;vertical&quot;,&quot;curved&quot;:0,&quot;rounded&quot;:0};" vertex="1" parent="UJyPSHQa-_RepvIGWFUO-7">
          <mxGeometry x="45" y="80" width="10" height="140" as="geometry" />
        </mxCell>
        <mxCell id="UJyPSHQa-_RepvIGWFUO-9" value="Event Repository" style="shape=umlLifeline;perimeter=lifelinePerimeter;whiteSpace=wrap;html=1;container=0;dropTarget=0;collapsible=0;recursiveResize=0;outlineConnect=0;portConstraint=eastwest;newEdgeStyle={&quot;edgeStyle&quot;:&quot;elbowEdgeStyle&quot;,&quot;elbow&quot;:&quot;vertical&quot;,&quot;curved&quot;:0,&quot;rounded&quot;:0};" vertex="1" parent="1">
          <mxGeometry x="530" y="40" width="100" height="230" as="geometry" />
        </mxCell>
        <mxCell id="UJyPSHQa-_RepvIGWFUO-10" value="" style="html=1;points=[];perimeter=orthogonalPerimeter;outlineConnect=0;targetShapes=umlLifeline;portConstraint=eastwest;newEdgeStyle={&quot;edgeStyle&quot;:&quot;elbowEdgeStyle&quot;,&quot;elbow&quot;:&quot;vertical&quot;,&quot;curved&quot;:0,&quot;rounded&quot;:0};" vertex="1" parent="UJyPSHQa-_RepvIGWFUO-9">
          <mxGeometry x="45" y="80" width="10" height="130" as="geometry" />
        </mxCell>
        <mxCell id="UJyPSHQa-_RepvIGWFUO-11" style="edgeStyle=elbowEdgeStyle;rounded=0;orthogonalLoop=1;jettySize=auto;html=1;elbow=vertical;curved=0;" edge="1" parent="1">
          <mxGeometry relative="1" as="geometry">
            <mxPoint x="280" y="140" as="sourcePoint" />
            <mxPoint x="420" y="140" as="targetPoint" />
          </mxGeometry>
        </mxCell>
        <mxCell id="UJyPSHQa-_RepvIGWFUO-12" value="calculateAttendance&lt;br&gt;(Date.now)" style="text;html=1;align=center;verticalAlign=middle;resizable=0;points=[];autosize=1;strokeColor=none;fillColor=none;" vertex="1" parent="1">
          <mxGeometry x="280" y="123" width="130" height="40" as="geometry" />
        </mxCell>
        <mxCell id="UJyPSHQa-_RepvIGWFUO-13" style="edgeStyle=elbowEdgeStyle;rounded=0;orthogonalLoop=1;jettySize=auto;html=1;elbow=vertical;curved=0;" edge="1" parent="1">
          <mxGeometry relative="1" as="geometry">
            <mxPoint x="425" y="148" as="sourcePoint" />
            <mxPoint x="574.5" y="148" as="targetPoint" />
          </mxGeometry>
        </mxCell>
        <mxCell id="UJyPSHQa-_RepvIGWFUO-14" value="findByDate(date)" style="text;html=1;align=center;verticalAlign=middle;resizable=0;points=[];autosize=1;strokeColor=none;fillColor=none;" vertex="1" parent="1">
          <mxGeometry x="445" y="128" width="110" height="30" as="geometry" />
        </mxCell>
        <mxCell id="UJyPSHQa-_RepvIGWFUO-16" value="return" style="html=1;verticalAlign=bottom;endArrow=open;dashed=1;endSize=8;edgeStyle=elbowEdgeStyle;elbow=vertical;curved=0;rounded=0;" edge="1" parent="1">
          <mxGeometry relative="1" as="geometry">
            <mxPoint x="273.75" y="249" as="targetPoint" />
            <Array as="points">
              <mxPoint x="346.25" y="249" />
            </Array>
            <mxPoint x="416.25" y="249" as="sourcePoint" />
          </mxGeometry>
        </mxCell>
        <mxCell id="UJyPSHQa-_RepvIGWFUO-17" value="return 200" style="html=1;verticalAlign=bottom;endArrow=open;dashed=1;endSize=8;edgeStyle=elbowEdgeStyle;elbow=horizontal;curved=0;rounded=0;" edge="1" parent="1">
          <mxGeometry relative="1" as="geometry">
            <mxPoint x="110" y="250" as="targetPoint" />
            <Array as="points">
              <mxPoint x="195" y="250" />
            </Array>
            <mxPoint x="265" y="250" as="sourcePoint" />
          </mxGeometry>
        </mxCell>
        <mxCell id="UJyPSHQa-_RepvIGWFUO-18" value="" style="group" vertex="1" connectable="0" parent="1">
          <mxGeometry x="710" y="110" width="120" height="160" as="geometry" />
        </mxCell>
        <mxCell id="UJyPSHQa-_RepvIGWFUO-19" value="" style="rounded=0;whiteSpace=wrap;html=1;" vertex="1" parent="UJyPSHQa-_RepvIGWFUO-18">
          <mxGeometry y="46.28099173553719" width="120" height="93.88429752066118" as="geometry" />
        </mxCell>
        <mxCell id="UJyPSHQa-_RepvIGWFUO-20" value="" style="group" vertex="1" connectable="0" parent="UJyPSHQa-_RepvIGWFUO-18">
          <mxGeometry y="74.04958677685951" width="120" height="85.9504132231405" as="geometry" />
        </mxCell>
        <mxCell id="UJyPSHQa-_RepvIGWFUO-21" value="" style="ellipse;whiteSpace=wrap;html=1;" vertex="1" parent="UJyPSHQa-_RepvIGWFUO-20">
          <mxGeometry y="33.057851239669425" width="120" height="52.89256198347107" as="geometry" />
        </mxCell>
        <mxCell id="UJyPSHQa-_RepvIGWFUO-22" value="" style="ellipse;whiteSpace=wrap;html=1;" vertex="1" parent="UJyPSHQa-_RepvIGWFUO-20">
          <mxGeometry width="120" height="52.89256198347107" as="geometry" />
        </mxCell>
        <mxCell id="UJyPSHQa-_RepvIGWFUO-23" value="" style="rounded=0;whiteSpace=wrap;html=1;" vertex="1" parent="UJyPSHQa-_RepvIGWFUO-18">
          <mxGeometry y="26.446280991735534" width="120" height="39.66942148760331" as="geometry" />
        </mxCell>
        <mxCell id="UJyPSHQa-_RepvIGWFUO-24" style="edgeStyle=orthogonalEdgeStyle;rounded=0;orthogonalLoop=1;jettySize=auto;html=1;exitX=0.5;exitY=1;exitDx=0;exitDy=0;" edge="1" parent="UJyPSHQa-_RepvIGWFUO-18" source="UJyPSHQa-_RepvIGWFUO-25" target="UJyPSHQa-_RepvIGWFUO-22">
          <mxGeometry relative="1" as="geometry" />
        </mxCell>
        <mxCell id="UJyPSHQa-_RepvIGWFUO-25" value="" style="ellipse;whiteSpace=wrap;html=1;" vertex="1" parent="UJyPSHQa-_RepvIGWFUO-18">
          <mxGeometry y="46.28099173553719" width="120" height="52.89256198347107" as="geometry" />
        </mxCell>
        <mxCell id="UJyPSHQa-_RepvIGWFUO-26" value="" style="ellipse;whiteSpace=wrap;html=1;" vertex="1" parent="UJyPSHQa-_RepvIGWFUO-18">
          <mxGeometry width="120" height="52.89256198347107" as="geometry" />
        </mxCell>
        <mxCell id="UJyPSHQa-_RepvIGWFUO-27" value="DB" style="text;html=1;align=center;verticalAlign=middle;resizable=0;points=[];autosize=1;strokeColor=none;fillColor=none;" vertex="1" parent="1">
          <mxGeometry x="750" y="40" width="40" height="30" as="geometry" />
        </mxCell>
        <mxCell id="UJyPSHQa-_RepvIGWFUO-28" value="" style="endArrow=classic;startArrow=classic;html=1;rounded=0;" edge="1" parent="1">
          <mxGeometry width="50" height="50" relative="1" as="geometry">
            <mxPoint x="590" y="155" as="sourcePoint" />
            <mxPoint x="710" y="155" as="targetPoint" />
          </mxGeometry>
        </mxCell>
        <mxCell id="UJyPSHQa-_RepvIGWFUO-29" style="edgeStyle=elbowEdgeStyle;rounded=0;orthogonalLoop=1;jettySize=auto;html=1;elbow=horizontal;curved=0;" edge="1" parent="1">
          <mxGeometry relative="1" as="geometry">
            <mxPoint x="572.5" y="164.5" as="sourcePoint" />
            <mxPoint x="427.5" y="164.5" as="targetPoint" />
          </mxGeometry>
        </mxCell>
        <mxCell id="UJyPSHQa-_RepvIGWFUO-30" value="list&amp;lt;events&amp;gt;" style="edgeLabel;html=1;align=center;verticalAlign=middle;resizable=0;points=[];" vertex="1" connectable="0" parent="UJyPSHQa-_RepvIGWFUO-29">
          <mxGeometry x="0.2713" y="1" relative="1" as="geometry">
            <mxPoint x="20" y="-5" as="offset" />
          </mxGeometry>
        </mxCell>
        <mxCell id="UJyPSHQa-_RepvIGWFUO-31" value="" style="edgeStyle=elbowEdgeStyle;rounded=0;orthogonalLoop=1;jettySize=auto;html=1;elbow=vertical;curved=0;" edge="1" parent="1" source="UJyPSHQa-_RepvIGWFUO-8" target="UJyPSHQa-_RepvIGWFUO-14">
          <mxGeometry relative="1" as="geometry" />
        </mxCell>
        <mxCell id="UJyPSHQa-_RepvIGWFUO-34" value="update(list&amp;lt;event))" style="text;html=1;align=center;verticalAlign=middle;resizable=0;points=[];autosize=1;strokeColor=none;fillColor=none;" vertex="1" parent="1">
          <mxGeometry x="430" y="170" width="120" height="30" as="geometry" />
        </mxCell>
        <mxCell id="UJyPSHQa-_RepvIGWFUO-36" style="edgeStyle=elbowEdgeStyle;rounded=0;orthogonalLoop=1;jettySize=auto;html=1;elbow=vertical;curved=0;" edge="1" parent="1">
          <mxGeometry relative="1" as="geometry">
            <mxPoint x="427.5" y="220" as="sourcePoint" />
            <mxPoint x="572.5" y="220" as="targetPoint" />
          </mxGeometry>
        </mxCell>
        <mxCell id="UJyPSHQa-_RepvIGWFUO-39" value="saveAll(list&amp;lt;event&amp;gt;)" style="text;html=1;align=center;verticalAlign=middle;resizable=0;points=[];autosize=1;strokeColor=none;fillColor=none;" vertex="1" parent="1">
          <mxGeometry x="435" y="200" width="130" height="30" as="geometry" />
        </mxCell>
        <mxCell id="UJyPSHQa-_RepvIGWFUO-42" value="" style="endArrow=classic;startArrow=classic;html=1;rounded=0;" edge="1" parent="1">
          <mxGeometry width="50" height="50" relative="1" as="geometry">
            <mxPoint x="590" y="230" as="sourcePoint" />
            <mxPoint x="710" y="230" as="targetPoint" />
          </mxGeometry>
        </mxCell>
        <mxCell id="UJyPSHQa-_RepvIGWFUO-43" value="return" style="html=1;verticalAlign=bottom;endArrow=open;dashed=1;endSize=8;edgeStyle=elbowEdgeStyle;elbow=vertical;curved=0;rounded=0;" edge="1" parent="1">
          <mxGeometry relative="1" as="geometry">
            <mxPoint x="428.75" y="239.31" as="targetPoint" />
            <Array as="points">
              <mxPoint x="501.25" y="239.31" />
            </Array>
            <mxPoint x="571.25" y="239.31" as="sourcePoint" />
          </mxGeometry>
        </mxCell>
      </root>
    </mxGraphModel>
  </diagram>
  <diagram id="Iv2AlBZWJFPMLMEOvThw" name="produceEvents">
    <mxGraphModel dx="993" dy="313" grid="1" gridSize="10" guides="1" tooltips="1" connect="1" arrows="1" fold="1" page="1" pageScale="1" pageWidth="500" pageHeight="500" math="0" shadow="0">
      <root>
        <mxCell id="0" />
        <mxCell id="1" parent="0" />
        <mxCell id="g135gdk5i4jA8f1i0pNu-37" value="API Gateway" style="shape=umlLifeline;perimeter=lifelinePerimeter;whiteSpace=wrap;html=1;container=0;dropTarget=0;collapsible=0;recursiveResize=0;outlineConnect=0;portConstraint=eastwest;newEdgeStyle={&quot;edgeStyle&quot;:&quot;elbowEdgeStyle&quot;,&quot;elbow&quot;:&quot;vertical&quot;,&quot;curved&quot;:0,&quot;rounded&quot;:0};" vertex="1" parent="1">
          <mxGeometry x="60" y="50" width="100" height="230" as="geometry" />
        </mxCell>
        <mxCell id="g135gdk5i4jA8f1i0pNu-38" value="" style="html=1;points=[];perimeter=orthogonalPerimeter;outlineConnect=0;targetShapes=umlLifeline;portConstraint=eastwest;newEdgeStyle={&quot;edgeStyle&quot;:&quot;elbowEdgeStyle&quot;,&quot;elbow&quot;:&quot;vertical&quot;,&quot;curved&quot;:0,&quot;rounded&quot;:0};" vertex="1" parent="g135gdk5i4jA8f1i0pNu-37">
          <mxGeometry x="45" y="70" width="10" height="150" as="geometry" />
        </mxCell>
        <mxCell id="g135gdk5i4jA8f1i0pNu-39" value="/publishEvents" style="html=1;verticalAlign=bottom;startArrow=oval;endArrow=block;startSize=8;edgeStyle=elbowEdgeStyle;elbow=vertical;curved=0;rounded=0;" edge="1" parent="g135gdk5i4jA8f1i0pNu-37" target="g135gdk5i4jA8f1i0pNu-38">
          <mxGeometry relative="1" as="geometry">
            <mxPoint x="-60" y="90" as="sourcePoint" />
          </mxGeometry>
        </mxCell>
        <mxCell id="g135gdk5i4jA8f1i0pNu-40" value="Event Controller" style="shape=umlLifeline;perimeter=lifelinePerimeter;whiteSpace=wrap;html=1;container=0;dropTarget=0;collapsible=0;recursiveResize=0;outlineConnect=0;portConstraint=eastwest;newEdgeStyle={&quot;edgeStyle&quot;:&quot;elbowEdgeStyle&quot;,&quot;elbow&quot;:&quot;vertical&quot;,&quot;curved&quot;:0,&quot;rounded&quot;:0};" vertex="1" parent="1">
          <mxGeometry x="230" y="50" width="100" height="230" as="geometry" />
        </mxCell>
        <mxCell id="g135gdk5i4jA8f1i0pNu-41" value="" style="html=1;points=[];perimeter=orthogonalPerimeter;outlineConnect=0;targetShapes=umlLifeline;portConstraint=eastwest;newEdgeStyle={&quot;edgeStyle&quot;:&quot;elbowEdgeStyle&quot;,&quot;elbow&quot;:&quot;vertical&quot;,&quot;curved&quot;:0,&quot;rounded&quot;:0};" vertex="1" parent="g135gdk5i4jA8f1i0pNu-40">
          <mxGeometry x="45" y="80" width="10" height="140" as="geometry" />
        </mxCell>
        <mxCell id="g135gdk5i4jA8f1i0pNu-42" value="/publishEvents" style="html=1;verticalAlign=bottom;endArrow=block;edgeStyle=elbowEdgeStyle;elbow=vertical;curved=0;rounded=0;" edge="1" parent="1" source="g135gdk5i4jA8f1i0pNu-38" target="g135gdk5i4jA8f1i0pNu-41">
          <mxGeometry relative="1" as="geometry">
            <mxPoint x="205" y="140" as="sourcePoint" />
            <Array as="points">
              <mxPoint x="220" y="140" />
              <mxPoint x="190" y="130" />
            </Array>
          </mxGeometry>
        </mxCell>
        <mxCell id="g135gdk5i4jA8f1i0pNu-43" value="Event Service" style="shape=umlLifeline;perimeter=lifelinePerimeter;whiteSpace=wrap;html=1;container=0;dropTarget=0;collapsible=0;recursiveResize=0;outlineConnect=0;portConstraint=eastwest;newEdgeStyle={&quot;edgeStyle&quot;:&quot;elbowEdgeStyle&quot;,&quot;elbow&quot;:&quot;vertical&quot;,&quot;curved&quot;:0,&quot;rounded&quot;:0};" vertex="1" parent="1">
          <mxGeometry x="385" y="50" width="100" height="230" as="geometry" />
        </mxCell>
        <mxCell id="g135gdk5i4jA8f1i0pNu-45" value="" style="html=1;points=[];perimeter=orthogonalPerimeter;outlineConnect=0;targetShapes=umlLifeline;portConstraint=eastwest;newEdgeStyle={&quot;edgeStyle&quot;:&quot;elbowEdgeStyle&quot;,&quot;elbow&quot;:&quot;vertical&quot;,&quot;curved&quot;:0,&quot;rounded&quot;:0};" vertex="1" parent="g135gdk5i4jA8f1i0pNu-43">
          <mxGeometry x="45" y="80" width="10" height="140" as="geometry" />
        </mxCell>
        <mxCell id="g135gdk5i4jA8f1i0pNu-46" value="Event Repository" style="shape=umlLifeline;perimeter=lifelinePerimeter;whiteSpace=wrap;html=1;container=0;dropTarget=0;collapsible=0;recursiveResize=0;outlineConnect=0;portConstraint=eastwest;newEdgeStyle={&quot;edgeStyle&quot;:&quot;elbowEdgeStyle&quot;,&quot;elbow&quot;:&quot;vertical&quot;,&quot;curved&quot;:0,&quot;rounded&quot;:0};" vertex="1" parent="1">
          <mxGeometry x="540" y="50" width="100" height="230" as="geometry" />
        </mxCell>
        <mxCell id="g135gdk5i4jA8f1i0pNu-47" value="" style="html=1;points=[];perimeter=orthogonalPerimeter;outlineConnect=0;targetShapes=umlLifeline;portConstraint=eastwest;newEdgeStyle={&quot;edgeStyle&quot;:&quot;elbowEdgeStyle&quot;,&quot;elbow&quot;:&quot;vertical&quot;,&quot;curved&quot;:0,&quot;rounded&quot;:0};" vertex="1" parent="g135gdk5i4jA8f1i0pNu-46">
          <mxGeometry x="45" y="80" width="10" height="60" as="geometry" />
        </mxCell>
        <mxCell id="g135gdk5i4jA8f1i0pNu-48" style="edgeStyle=elbowEdgeStyle;rounded=0;orthogonalLoop=1;jettySize=auto;html=1;elbow=vertical;curved=0;" edge="1" parent="1">
          <mxGeometry relative="1" as="geometry">
            <mxPoint x="290" y="150" as="sourcePoint" />
            <mxPoint x="430" y="150" as="targetPoint" />
          </mxGeometry>
        </mxCell>
        <mxCell id="g135gdk5i4jA8f1i0pNu-49" value="publishEvents&lt;br&gt;(Date.now)" style="text;html=1;align=center;verticalAlign=middle;resizable=0;points=[];autosize=1;strokeColor=none;fillColor=none;" vertex="1" parent="1">
          <mxGeometry x="305" y="133" width="100" height="40" as="geometry" />
        </mxCell>
        <mxCell id="g135gdk5i4jA8f1i0pNu-50" style="edgeStyle=elbowEdgeStyle;rounded=0;orthogonalLoop=1;jettySize=auto;html=1;elbow=vertical;curved=0;" edge="1" parent="1">
          <mxGeometry relative="1" as="geometry">
            <mxPoint x="435" y="158" as="sourcePoint" />
            <mxPoint x="584.5" y="158" as="targetPoint" />
          </mxGeometry>
        </mxCell>
        <mxCell id="g135gdk5i4jA8f1i0pNu-51" value="findByDate(date)" style="text;html=1;align=center;verticalAlign=middle;resizable=0;points=[];autosize=1;strokeColor=none;fillColor=none;" vertex="1" parent="1">
          <mxGeometry x="455" y="138" width="110" height="30" as="geometry" />
        </mxCell>
        <mxCell id="g135gdk5i4jA8f1i0pNu-52" value="return" style="html=1;verticalAlign=bottom;endArrow=open;dashed=1;endSize=8;edgeStyle=elbowEdgeStyle;elbow=vertical;curved=0;rounded=0;" edge="1" parent="1">
          <mxGeometry relative="1" as="geometry">
            <mxPoint x="283.75" y="259" as="targetPoint" />
            <Array as="points">
              <mxPoint x="356.25" y="259" />
            </Array>
            <mxPoint x="426.25" y="259" as="sourcePoint" />
          </mxGeometry>
        </mxCell>
        <mxCell id="g135gdk5i4jA8f1i0pNu-53" value="return 200" style="html=1;verticalAlign=bottom;endArrow=open;dashed=1;endSize=8;edgeStyle=elbowEdgeStyle;elbow=horizontal;curved=0;rounded=0;" edge="1" parent="1">
          <mxGeometry relative="1" as="geometry">
            <mxPoint x="120" y="260" as="targetPoint" />
            <Array as="points">
              <mxPoint x="205" y="260" />
            </Array>
            <mxPoint x="275" y="260" as="sourcePoint" />
          </mxGeometry>
        </mxCell>
        <mxCell id="g135gdk5i4jA8f1i0pNu-54" value="" style="group" vertex="1" connectable="0" parent="1">
          <mxGeometry x="800" y="120" width="120" height="90" as="geometry" />
        </mxCell>
        <mxCell id="g135gdk5i4jA8f1i0pNu-55" value="" style="rounded=0;whiteSpace=wrap;html=1;" vertex="1" parent="g135gdk5i4jA8f1i0pNu-54">
          <mxGeometry y="26.033057851239672" width="120" height="52.809917355371915" as="geometry" />
        </mxCell>
        <mxCell id="g135gdk5i4jA8f1i0pNu-56" value="" style="group" vertex="1" connectable="0" parent="g135gdk5i4jA8f1i0pNu-54">
          <mxGeometry y="41.65289256198348" width="120" height="48.34710743801653" as="geometry" />
        </mxCell>
        <mxCell id="g135gdk5i4jA8f1i0pNu-57" value="" style="ellipse;whiteSpace=wrap;html=1;" vertex="1" parent="g135gdk5i4jA8f1i0pNu-56">
          <mxGeometry y="18.595041322314053" width="120" height="29.752066115702476" as="geometry" />
        </mxCell>
        <mxCell id="g135gdk5i4jA8f1i0pNu-58" value="" style="ellipse;whiteSpace=wrap;html=1;" vertex="1" parent="g135gdk5i4jA8f1i0pNu-56">
          <mxGeometry width="120" height="29.752066115702476" as="geometry" />
        </mxCell>
        <mxCell id="g135gdk5i4jA8f1i0pNu-59" value="" style="rounded=0;whiteSpace=wrap;html=1;" vertex="1" parent="g135gdk5i4jA8f1i0pNu-54">
          <mxGeometry y="14.876033057851238" width="120" height="22.31404958677686" as="geometry" />
        </mxCell>
        <mxCell id="g135gdk5i4jA8f1i0pNu-60" style="edgeStyle=orthogonalEdgeStyle;rounded=0;orthogonalLoop=1;jettySize=auto;html=1;exitX=0.5;exitY=1;exitDx=0;exitDy=0;" edge="1" parent="g135gdk5i4jA8f1i0pNu-54" source="g135gdk5i4jA8f1i0pNu-61" target="g135gdk5i4jA8f1i0pNu-58">
          <mxGeometry relative="1" as="geometry" />
        </mxCell>
        <mxCell id="g135gdk5i4jA8f1i0pNu-73" value="" style="edgeStyle=orthogonalEdgeStyle;rounded=0;orthogonalLoop=1;jettySize=auto;html=1;" edge="1" parent="g135gdk5i4jA8f1i0pNu-54" source="g135gdk5i4jA8f1i0pNu-61" target="g135gdk5i4jA8f1i0pNu-57">
          <mxGeometry relative="1" as="geometry" />
        </mxCell>
        <mxCell id="g135gdk5i4jA8f1i0pNu-61" value="" style="ellipse;whiteSpace=wrap;html=1;" vertex="1" parent="g135gdk5i4jA8f1i0pNu-54">
          <mxGeometry y="26.033057851239672" width="120" height="29.752066115702476" as="geometry" />
        </mxCell>
        <mxCell id="g135gdk5i4jA8f1i0pNu-62" value="" style="ellipse;whiteSpace=wrap;html=1;" vertex="1" parent="g135gdk5i4jA8f1i0pNu-54">
          <mxGeometry width="120" height="29.752066115702476" as="geometry" />
        </mxCell>
        <mxCell id="g135gdk5i4jA8f1i0pNu-63" value="DB" style="text;html=1;align=center;verticalAlign=middle;resizable=0;points=[];autosize=1;strokeColor=none;fillColor=none;" vertex="1" parent="1">
          <mxGeometry x="840" y="50" width="40" height="30" as="geometry" />
        </mxCell>
        <mxCell id="g135gdk5i4jA8f1i0pNu-64" value="" style="endArrow=classic;startArrow=classic;html=1;rounded=0;" edge="1" parent="1">
          <mxGeometry width="50" height="50" relative="1" as="geometry">
            <mxPoint x="600" y="165" as="sourcePoint" />
            <mxPoint x="800" y="165" as="targetPoint" />
          </mxGeometry>
        </mxCell>
        <mxCell id="g135gdk5i4jA8f1i0pNu-65" style="edgeStyle=elbowEdgeStyle;rounded=0;orthogonalLoop=1;jettySize=auto;html=1;elbow=horizontal;curved=0;" edge="1" parent="1">
          <mxGeometry relative="1" as="geometry">
            <mxPoint x="582.5" y="174.5" as="sourcePoint" />
            <mxPoint x="437.5" y="174.5" as="targetPoint" />
          </mxGeometry>
        </mxCell>
        <mxCell id="g135gdk5i4jA8f1i0pNu-66" value="list&amp;lt;events&amp;gt;" style="edgeLabel;html=1;align=center;verticalAlign=middle;resizable=0;points=[];" vertex="1" connectable="0" parent="g135gdk5i4jA8f1i0pNu-65">
          <mxGeometry x="0.2713" y="1" relative="1" as="geometry">
            <mxPoint x="20" y="-5" as="offset" />
          </mxGeometry>
        </mxCell>
        <mxCell id="g135gdk5i4jA8f1i0pNu-67" value="" style="edgeStyle=elbowEdgeStyle;rounded=0;orthogonalLoop=1;jettySize=auto;html=1;elbow=vertical;curved=0;" edge="1" parent="1" source="g135gdk5i4jA8f1i0pNu-45" target="g135gdk5i4jA8f1i0pNu-51">
          <mxGeometry relative="1" as="geometry" />
        </mxCell>
        <mxCell id="g135gdk5i4jA8f1i0pNu-69" style="edgeStyle=elbowEdgeStyle;rounded=0;orthogonalLoop=1;jettySize=auto;html=1;elbow=vertical;curved=0;" edge="1" parent="1" target="g135gdk5i4jA8f1i0pNu-75">
          <mxGeometry relative="1" as="geometry">
            <mxPoint x="437.5" y="230" as="sourcePoint" />
            <mxPoint x="582.5" y="230" as="targetPoint" />
          </mxGeometry>
        </mxCell>
        <mxCell id="g135gdk5i4jA8f1i0pNu-70" value="produceEvents(list&amp;lt;event&amp;gt;)" style="text;html=1;align=center;verticalAlign=middle;resizable=0;points=[];autosize=1;strokeColor=none;fillColor=none;" vertex="1" parent="1">
          <mxGeometry x="505" y="210" width="170" height="30" as="geometry" />
        </mxCell>
        <mxCell id="g135gdk5i4jA8f1i0pNu-72" value="return" style="html=1;verticalAlign=bottom;endArrow=open;dashed=1;endSize=8;edgeStyle=elbowEdgeStyle;elbow=vertical;curved=0;rounded=0;" edge="1" parent="1">
          <mxGeometry relative="1" as="geometry">
            <mxPoint x="438.75" y="249.31" as="targetPoint" />
            <Array as="points">
              <mxPoint x="511.25" y="249.31" />
            </Array>
            <mxPoint x="581.25" y="249.31" as="sourcePoint" />
          </mxGeometry>
        </mxCell>
        <mxCell id="g135gdk5i4jA8f1i0pNu-74" value="Event Producer" style="shape=umlLifeline;perimeter=lifelinePerimeter;whiteSpace=wrap;html=1;container=0;dropTarget=0;collapsible=0;recursiveResize=0;outlineConnect=0;portConstraint=eastwest;newEdgeStyle={&quot;edgeStyle&quot;:&quot;elbowEdgeStyle&quot;,&quot;elbow&quot;:&quot;vertical&quot;,&quot;curved&quot;:0,&quot;rounded&quot;:0};" vertex="1" parent="1">
          <mxGeometry x="680" y="50" width="100" height="230" as="geometry" />
        </mxCell>
        <mxCell id="g135gdk5i4jA8f1i0pNu-75" value="" style="html=1;points=[];perimeter=orthogonalPerimeter;outlineConnect=0;targetShapes=umlLifeline;portConstraint=eastwest;newEdgeStyle={&quot;edgeStyle&quot;:&quot;elbowEdgeStyle&quot;,&quot;elbow&quot;:&quot;vertical&quot;,&quot;curved&quot;:0,&quot;rounded&quot;:0};" vertex="1" parent="g135gdk5i4jA8f1i0pNu-74">
          <mxGeometry x="45" y="160" width="10" height="50" as="geometry" />
        </mxCell>
        <mxCell id="g135gdk5i4jA8f1i0pNu-76" value="Kafka&lt;br&gt;Message Broker" style="text;html=1;align=center;verticalAlign=middle;resizable=0;points=[];autosize=1;strokeColor=none;fillColor=none;" vertex="1" parent="1">
          <mxGeometry x="940" y="50" width="110" height="40" as="geometry" />
        </mxCell>
        <mxCell id="g135gdk5i4jA8f1i0pNu-77" value="Message&lt;br&gt;Broker" style="shape=cylinder3;whiteSpace=wrap;html=1;boundedLbl=1;backgroundOutline=1;size=15;" vertex="1" parent="1">
          <mxGeometry x="965" y="120" width="60" height="250" as="geometry" />
        </mxCell>
        <mxCell id="g135gdk5i4jA8f1i0pNu-78" style="edgeStyle=elbowEdgeStyle;rounded=0;orthogonalLoop=1;jettySize=auto;html=1;elbow=vertical;curved=0;" edge="1" parent="1" source="g135gdk5i4jA8f1i0pNu-75" target="g135gdk5i4jA8f1i0pNu-77">
          <mxGeometry relative="1" as="geometry" />
        </mxCell>
        <mxCell id="g135gdk5i4jA8f1i0pNu-79" value="return" style="html=1;verticalAlign=bottom;endArrow=open;dashed=1;endSize=8;edgeStyle=elbowEdgeStyle;elbow=vertical;curved=0;rounded=0;" edge="1" parent="1">
          <mxGeometry relative="1" as="geometry">
            <mxPoint x="590" y="245" as="targetPoint" />
            <Array as="points">
              <mxPoint x="652.5" y="244.67000000000002" />
            </Array>
            <mxPoint x="722.5" y="244.67000000000002" as="sourcePoint" />
          </mxGeometry>
        </mxCell>
      </root>
    </mxGraphModel>
  </diagram>
</mxfile>
